<svg width="207" height="208" viewBox="0 0 207 208" fill="none" xmlns="http://www.w3.org/2000/svg">
<g clip-path="url(#clip0)">
<rect width="206.5" height="206.5" transform="translate(0.000244141 0.800781)" fill="white" fill-opacity="0.01"></rect>
<path d="M67.7002 194.4L85.0002 150.4C85.559 149.033 86.6026 147.92 87.9311 147.274C89.2596 146.628 90.7797 146.495 92.2002 146.9C99.0744 148.714 106.293 148.783 113.2 147.1C114.642 146.785 116.15 146.994 117.451 147.69C118.753 148.387 119.763 149.525 120.3 150.9L136.4 195.2C136.681 195.974 136.803 196.796 136.757 197.618C136.712 198.44 136.501 199.244 136.136 199.982C135.772 200.721 135.262 201.377 134.637 201.913C134.012 202.449 133.285 202.853 132.5 203.1C112.551 208.987 91.2883 208.708 71.5002 202.3C70.7241 202.042 70.0077 201.631 69.3937 201.091C68.7797 200.551 68.2806 199.892 67.9261 199.155C67.5716 198.418 67.3689 197.618 67.3301 196.801C67.2913 195.984 67.4172 195.167 67.7002 194.4Z" fill="url(#paint0_linear)"></path>
<path d="M202.3 104.002C202.32 123.606 196.525 142.776 185.647 159.086C174.77 175.396 159.3 188.114 141.193 195.63C123.087 203.146 103.158 205.122 83.928 201.31C64.6979 197.497 47.0306 188.067 33.1612 174.212C19.2919 160.356 9.84356 142.699 6.01165 123.472C2.17974 104.246 4.1364 84.3152 11.6341 66.2012C19.1318 48.0872 31.8336 32.604 48.1327 21.7103C64.4318 10.8167 83.5957 5.00201 103.2 5.002C116.209 4.98886 129.094 7.53988 141.116 12.5092C153.139 17.4785 164.065 24.7687 173.268 33.9631C182.472 43.1574 189.773 54.0755 194.755 66.0932C199.736 78.111 202.3 90.9927 202.3 104.002ZM103.2 55.702C93.6232 55.702 84.2616 58.5432 76.3001 63.8659C68.3386 69.1886 62.1352 76.7535 58.4748 85.6033C54.8145 94.4531 53.8619 104.19 55.7375 113.581C57.6132 122.973 62.2328 131.596 69.0116 138.361C75.7905 145.126 84.4239 149.728 93.8192 151.584C103.214 153.44 112.949 152.468 121.791 148.789C130.634 145.11 138.186 138.891 143.492 130.919C148.798 122.946 151.62 113.579 151.6 104.002C151.6 97.6507 150.347 91.3618 147.914 85.4953C145.48 79.6287 141.914 74.2997 137.418 69.8133C132.922 65.327 127.586 61.7713 121.714 59.3499C115.843 56.9285 109.551 55.6889 103.2 55.702Z" fill="url(#paint1_linear)"></path>
<path d="M103.2 5.00197C88.5812 4.993 74.1395 8.20228 60.9002 14.402C39.3899 27.7775 23.8179 48.8819 17.3824 73.3805C10.9469 97.879 14.1366 123.912 26.2963 146.132C38.4559 168.352 58.6625 185.073 82.7656 192.86C106.869 200.646 133.039 198.908 155.9 188.002C174.097 176.563 188.081 159.519 195.745 139.439C203.409 119.359 204.337 97.3315 198.389 76.6778C192.441 56.0242 179.94 37.8641 162.77 24.9355C145.601 12.007 124.693 5.01083 103.2 5.00197ZM131.4 143.302C123.217 149.277 113.332 152.467 103.2 152.402C91.9753 152.363 81.1132 148.423 72.473 141.257C63.8329 134.092 57.952 124.146 55.837 113.122C53.722 102.098 55.5045 90.6816 60.8793 80.8271C66.254 70.9727 74.8869 63.2927 85.3002 59.102C90.861 55.047 97.2227 52.2245 103.961 50.823C110.699 49.4214 117.658 49.473 124.375 50.9743C131.092 52.4756 137.411 55.392 142.911 59.529C148.411 63.6661 152.966 68.9285 156.271 74.9652C159.576 81.002 161.555 87.6742 162.078 94.5366C162.6 101.399 161.652 108.294 159.299 114.761C156.945 121.229 153.239 127.12 148.428 132.041C143.617 136.963 137.812 140.802 131.4 143.302Z" fill="url(#paint2_linear)"></path>
<path d="M34.1002 200.401C30.5282 200.415 26.9896 199.714 23.6924 198.34C20.3952 196.966 17.4058 194.947 14.9002 192.401C11.9583 189.482 9.72542 185.926 8.37319 182.008C7.02096 178.09 6.58545 173.914 7.10015 169.801L10.5002 142.501C13.7002 116.968 13.7002 91.1349 10.5002 65.6014L7.10015 38.3014C6.59935 34.1891 7.04102 30.0167 8.39169 26.1004C9.74235 22.1841 11.9666 18.6265 14.8959 15.6972C17.8253 12.7678 21.3828 10.5436 25.2992 9.19292C29.2155 7.84225 33.3878 7.40059 37.5002 7.90139L64.8002 11.3014C90.3336 14.5014 116.167 14.5014 141.7 11.3014L169 7.90139C173.112 7.40059 177.285 7.84225 181.201 9.19292C185.117 10.5436 188.675 12.7678 191.604 15.6972C194.534 18.6265 196.758 22.1841 198.109 26.1004C199.459 30.0167 199.901 34.1891 199.4 38.3014L196 65.6014C192.8 91.1349 192.8 116.968 196 142.501L199.4 169.801C199.901 173.914 199.459 178.086 198.109 182.002C196.758 185.919 194.534 189.476 191.604 192.406C188.675 195.335 185.117 197.559 181.201 198.91C177.285 200.261 173.112 200.702 169 200.201L141.7 196.801C116.167 193.601 90.3336 193.601 64.8002 196.801L37.5002 200.201L34.1002 200.401ZM34.1002 9.70139C30.7911 9.69543 27.5138 10.3465 24.4582 11.6168C21.4027 12.887 18.6297 14.7513 16.3002 17.1014C13.5591 19.7865 11.4814 23.0732 10.2316 26.701C8.98184 30.3288 8.59445 34.1978 9.10015 38.0014L12.5002 65.3014C15.7004 91.0356 15.7004 117.067 12.5002 142.801L9.10015 170.001C8.58624 173.82 8.96937 177.707 10.2192 181.352C11.469 184.997 13.551 188.301 16.3002 191.001C18.9988 193.723 22.2872 195.788 25.9111 197.037C29.5351 198.285 33.3976 198.684 37.2002 198.201L64.5002 194.801C90.2344 191.601 116.266 191.601 142 194.801L169.2 198.201C173.016 198.671 176.888 198.265 180.523 197.013C184.159 195.762 187.461 193.699 190.179 190.981C192.898 188.262 194.961 184.96 196.212 181.325C197.463 177.69 197.87 173.817 197.4 170.001L194 142.801C190.8 117.067 190.8 91.0356 194 65.3014L197.4 38.0014C197.883 34.1989 197.484 30.3363 196.236 26.7124C194.987 23.0884 192.922 19.8 190.2 17.1014C187.5 14.3522 184.196 12.2702 180.551 11.0204C176.906 9.77061 173.019 9.38747 169.2 9.90139L142 13.3014C116.266 16.5016 90.2344 16.5016 64.5002 13.3014L37.2002 9.90139L34.1002 9.70139Z" fill="#FF5630"></path>
<path d="M67.7001 194.401L85.0001 150.401C85.559 149.034 86.6026 147.92 87.9311 147.275C89.2596 146.629 90.7796 146.496 92.2001 146.901C99.0743 148.715 106.293 148.784 113.2 147.101C114.642 146.785 116.15 146.995 117.451 147.691C118.753 148.388 119.763 149.526 120.3 150.901L136.4 195.201C136.681 195.975 136.803 196.797 136.757 197.619C136.712 198.441 136.501 199.245 136.136 199.983C135.772 200.722 135.262 201.378 134.637 201.914C134.012 202.45 133.285 202.854 132.5 203.101C112.551 208.988 91.2882 208.709 71.5001 202.301C70.724 202.043 70.0077 201.632 69.3937 201.092C68.7797 200.551 68.2806 199.893 67.9261 199.156C67.5716 198.419 67.3689 197.619 67.3301 196.802C67.2913 195.985 67.4171 195.168 67.7001 194.401ZM4.30014 133.301C-1.66933 113.369 -1.42515 92.091 5.00014 72.301C5.25796 71.5249 5.66922 70.8086 6.20946 70.1946C6.7497 69.5806 7.40789 69.0815 8.14489 68.727C8.88189 68.3725 9.68266 68.1698 10.4996 68.131C11.3165 68.0922 12.1328 68.218 12.9001 68.501L56.9001 85.801C58.2675 86.3599 59.3807 87.4035 60.0265 88.732C60.6723 90.0605 60.8054 91.5805 60.4001 93.001C58.5863 99.8752 58.5175 107.094 60.2001 114.001C60.5373 115.444 60.3375 116.961 59.6382 118.267C58.9389 119.574 57.7879 120.581 56.4001 121.101L12.1001 137.301C11.3277 137.595 10.5022 137.723 9.67705 137.678C8.8519 137.632 8.04553 137.414 7.31017 137.036C6.57482 136.659 5.92689 136.132 5.40836 135.488C4.88983 134.845 4.51227 134.1 4.30014 133.301ZM146.1 115.101C147.914 108.227 147.983 101.009 146.3 94.101C145.985 92.659 146.194 91.1516 146.891 89.8501C147.587 88.5486 148.725 87.5383 150.1 87.001L194.4 70.901C195.174 70.6201 195.996 70.4986 196.818 70.544C197.64 70.5893 198.444 70.8005 199.183 71.1649C199.921 71.5293 200.577 72.0393 201.113 72.6642C201.649 73.2891 202.053 74.016 202.3 74.801C208.187 94.7504 207.908 116.013 201.5 135.801C201.244 136.577 200.832 137.292 200.29 137.903C199.748 138.513 199.087 139.007 198.347 139.354C197.608 139.7 196.805 139.892 195.989 139.917C195.173 139.942 194.36 139.801 193.6 139.501L149.6 122.301C148.233 121.742 147.12 120.699 146.474 119.37C145.828 118.042 145.695 116.522 146.1 115.101ZM86.2001 57.201L69.9001 12.901C69.6368 12.1268 69.5319 11.3076 69.5916 10.492C69.6512 9.67641 69.8743 8.88115 70.2474 8.15349C70.6206 7.42584 71.1362 6.78064 71.7637 6.25626C72.3912 5.73187 73.1178 5.33902 73.9001 5.10104C93.8661 -0.870201 115.176 -0.626059 135 5.80104C135.776 6.05709 136.491 6.46878 137.102 7.01088C137.712 7.55298 138.206 8.21408 138.553 8.95368C138.899 9.69329 139.091 10.4958 139.116 11.3121C139.141 12.1285 139 12.9413 138.7 13.701L121.5 57.701C120.941 59.0684 119.898 60.1816 118.569 60.8274C117.241 61.4732 115.721 61.6063 114.3 61.201C107.392 59.3871 100.141 59.3184 93.2001 61.001C91.7705 61.3335 90.2686 61.1303 88.9787 60.4301C87.6887 59.7298 86.7002 58.581 86.2001 57.201Z" fill="url(#paint3_linear)"></path>
<g style="mix-blend-mode:soft-light">
<path d="M136.3 194.9L120.3 150.9C119.763 149.525 118.753 148.387 117.451 147.69C116.15 146.994 114.642 146.785 113.2 147.1C106.293 148.783 99.0743 148.714 92.2001 146.9C90.7796 146.495 89.2596 146.628 87.9311 147.274C86.6026 147.92 85.559 149.033 85.0001 150.4L70.4001 187.6C83.8354 194.111 98.5704 197.496 113.5 197.5C121.175 197.509 128.825 196.637 136.3 194.9Z" fill="#8993A4"></path>
</g>
<g style="mix-blend-mode:soft-light">
<path d="M193.6 139.501C194.36 139.801 195.173 139.943 195.989 139.917C196.805 139.892 197.608 139.7 198.348 139.354C199.087 139.008 199.748 138.514 200.29 137.903C200.833 137.292 201.244 136.577 201.5 135.801C207.908 116.013 208.187 94.7508 202.3 74.8015C202.053 74.0164 201.649 73.2895 201.113 72.6646C200.577 72.0397 199.921 71.5297 199.183 71.1654C198.445 70.801 197.64 70.5898 196.818 70.5444C195.997 70.4991 195.174 70.6205 194.4 70.9015L159.6 83.6015C161.746 90.3337 162.402 97.4522 161.521 104.463C160.641 111.474 158.245 118.209 154.5 124.202L193.6 139.501Z" fill="#8993A4"></path>
</g>
<g style="mix-blend-mode:soft-light">
<path d="M60.2002 114.001C58.5176 107.094 58.5863 99.8754 60.4002 93.0012C60.8054 91.5807 60.6723 90.0606 60.0265 88.7321C59.3807 87.4036 58.2675 86.36 56.9002 85.8012L18.4002 70.7012C15.743 79.6944 14.3958 89.0236 14.4002 98.4012C14.4067 110.571 16.6436 122.637 21.0002 134.001L56.4002 121.101C57.7879 120.581 58.939 119.574 59.6383 118.267C60.3376 116.961 60.5373 115.444 60.2002 114.001Z" fill="#8993A4"></path>
</g>
<g style="mix-blend-mode:soft-light">
<path d="M69.9002 12.9018L86.2002 57.2018C86.2721 57.5565 86.4076 57.8953 86.6002 58.2018C94.5471 52.8441 103.916 49.9882 113.5 50.0018C117.035 49.9944 120.558 50.3971 124 51.2018L138.7 13.7018C139 12.9421 139.142 12.1292 139.116 11.3129C139.091 10.4966 138.899 9.69401 138.553 8.95441C138.206 8.2148 137.712 7.5537 137.102 7.0116C136.491 6.4695 135.776 6.05781 135 5.80176C121.848 1.54046 107.971 -0.0240697 94.2002 1.20176C85.7035 2.87712 77.4656 5.66795 69.7002 9.50176C69.4682 10.6331 69.5372 11.8054 69.9002 12.9018Z" fill="#8993A4"></path>
</g>
</g>
<defs>
<linearGradient id="paint0_linear" x1="67.3202" y1="176.98" x2="136.81" y2="176.98" gradientUnits="userSpaceOnUse">
<stop stop-color="#DE350B"></stop>
<stop offset="1" stop-color="#FF7452"></stop>
</linearGradient>
<linearGradient id="paint1_linear" x1="103.24" y1="203.132" x2="103.24" y2="4.96201" gradientUnits="userSpaceOnUse">
<stop stop-color="#C1C7D0"></stop>
<stop offset="0.04" stop-color="#C4C9D2"></stop>
<stop offset="0.37" stop-color="#D9DDE3"></stop>
<stop offset="0.7" stop-color="#E7E8ED"></stop>
<stop offset="1" stop-color="#EBECF0"></stop>
</linearGradient>
<linearGradient id="paint2_linear" x1="14.4402" y1="101.222" x2="212.61" y2="101.222" gradientUnits="userSpaceOnUse">
<stop stop-color="#DFE1E5"></stop>
<stop offset="1" stop-color="#F4F5F7"></stop>
</linearGradient>
<linearGradient id="paint3_linear" x1="0.000135404" y1="104.041" x2="206.49" y2="104.041" gradientUnits="userSpaceOnUse">
<stop stop-color="#0065FF"></stop>
<stop offset="1" stop-color="#4C9AFF"></stop>
</linearGradient>
<clipPath id="clip0">
<rect width="206.5" height="206.5" fill="white" transform="translate(0.000244141 0.800781)"></rect>
</clipPath>
</defs>
</svg>
