<svg width="120" height="120" viewBox="0 0 120 120" fill="none" xmlns="http://www.w3.org/2000/svg">
<g clip-path="url(#clip0_639_49978)">
<rect width="120" height="120" fill="white" fill-opacity="0.01"></rect>
<path d="M116.96 101.325L101.336 41.1074L41.3906 101.271L101.336 117.006H101.391L112.946 120C114.816 120 116.61 119.255 117.933 117.927C119.255 116.6 119.998 114.8 119.998 112.922L116.96 101.325Z" fill="#0052CC"></path>
<path d="M118.75 108.077L116.96 101.325L101.336 41.1074L41.3906 101.271L101.336 117.006H101.391L108.063 118.748C110.863 118.667 113.526 117.518 115.511 115.535C117.497 113.553 118.655 110.886 118.75 108.077V108.077Z" fill="url(#paint0_linear_639_49978)"></path>
<path d="M81.4851 81.2525C99.832 62.839 106.77 39.9486 96.9826 30.1252C87.1948 20.3018 64.3871 27.2655 46.0403 45.679C27.6934 64.0925 20.7549 86.9829 30.5427 96.8063C40.3306 106.63 63.1382 99.666 81.4851 81.2525Z" fill="url(#paint1_linear_639_49978)"></path>
<path d="M42.8038 99.3117C38.1383 99.3117 34.5036 98.005 31.8996 95.3915C27.7224 91.1992 26.9087 83.9578 29.6212 75.0286C32.3336 66.0994 38.7351 55.7545 47.415 47.0431C59.3499 35.1193 73.6175 27.6602 84.6845 27.6602C89.3499 27.6602 92.9846 28.9669 95.5886 31.5259C99.7658 35.7727 100.58 43.0141 97.8671 51.9433C95.1546 60.8725 88.7532 71.2173 80.0732 79.8743C68.1383 91.8525 53.8707 99.3117 42.8038 99.3117Z" fill="url(#paint2_linear_639_49978)"></path>
<path opacity="0.1" d="M97.869 51.9433C100.581 43.0141 99.7677 35.7727 95.5905 31.5259C92.9865 28.9669 89.3518 27.6602 84.6864 27.6602C76.4947 27.6602 66.4585 31.7436 56.9648 38.8217C59.0691 39.7171 60.9701 41.0323 62.5525 42.6874C66.784 47.2064 67.2723 52.5966 67.7063 57.8779C68.1403 63.1592 68.4657 67.1338 71.4495 71.5984C73.5652 74.7563 76.7117 77.3153 80.7262 79.2754C89.0263 70.7273 95.1565 61.0358 97.869 51.9433Z" fill="url(#paint3_linear_639_49978)"></path>
<path d="M20.1826 89.7272L11.8281 84.6092C14.2451 80.6025 17.8218 77.4306 22.0813 75.5167C31.9005 71.2154 41.0144 75.7344 42.7504 76.66L38.0849 85.317C37.0542 84.7181 31.6292 82.0502 26.0415 84.5003C23.6037 85.6031 21.5596 87.4267 20.1826 89.7272V89.7272Z" fill="#0065FF"></path>
<path d="M41.7174 31.7423C40.1984 30.49 32.5492 23.6842 32.7662 13.0127C32.9105 8.32468 34.4609 3.78943 37.2147 0L45.1351 5.77133C43.5506 7.91975 42.6607 10.5042 42.5854 13.176C42.4227 19.3285 46.9796 23.3575 47.9019 24.1198L41.7174 31.7423Z" fill="#0065FF"></path>
<path d="M32.6527 38.0441L27.125 45.248L47.0082 60.6157L52.5359 53.4118L32.6527 38.0441Z" fill="#00C7E5"></path>
<path d="M87.0641 12.9087L78.2891 15.1699L84.5544 39.6605L93.3295 37.3993L87.0641 12.9087Z" fill="#00C7E5"></path>
<path d="M4.33996 71.7603C6.73686 71.7603 8.67993 69.8101 8.67993 67.4045C8.67993 64.9989 6.73686 63.0488 4.33996 63.0488C1.94307 63.0488 0 64.9989 0 67.4045C0 69.8101 1.94307 71.7603 4.33996 71.7603Z" fill="#FFBDAD"></path>
<path d="M60.5978 72.1958C62.9947 72.1958 64.9377 70.2457 64.9377 67.8401C64.9377 65.4345 62.9947 63.4844 60.5978 63.4844C58.2009 63.4844 56.2578 65.4345 56.2578 67.8401C56.2578 70.2457 58.2009 72.1958 60.5978 72.1958Z" fill="#FFBDAD"></path>
<path d="M28.0485 61.5247C26.8008 61.2524 26.3668 60.0546 26.0413 59.129C25.7158 58.2034 25.4988 57.5501 24.8478 57.3868C24.1968 57.2234 23.7086 57.659 22.9491 58.3668C22.1896 59.0746 21.3758 59.9457 20.0738 59.6191C18.7719 59.2924 18.3921 58.149 18.1209 57.2234C17.8496 56.2978 17.5241 55.6445 16.8731 55.4811C16.2221 55.3178 15.7339 55.7534 15.0286 56.4612C14.3234 57.169 13.4012 58.0401 12.1534 57.7679C10.9057 57.4956 10.4717 56.2434 10.1462 55.3178C9.82068 54.3922 9.54943 53.7933 8.89844 53.6299L9.16969 52.541C10.4174 52.8677 10.8514 54.0111 11.1769 54.9911C11.5024 55.9711 11.7194 56.5156 12.3704 56.6789C13.0214 56.8423 13.5096 56.4067 14.2691 55.6989C15.0286 54.9911 15.8424 54.12 17.1444 54.4466C18.4464 54.7733 18.8261 55.9167 19.0974 56.8423C19.3686 57.7679 19.6941 58.4212 20.3451 58.5846C20.9961 58.7479 21.4843 58.3123 22.1896 57.6045C22.8948 56.8967 23.8171 56.0256 25.0648 56.3523C26.3125 56.6789 26.7465 57.8223 27.072 58.7479C27.3975 59.6735 27.6688 60.3269 28.3198 60.4902L28.0485 61.5247Z" fill="#0065FF"></path>
<path d="M72.801 62.9396C72.2042 61.7418 72.8552 60.6529 73.3435 59.8362C73.8317 59.0195 74.1572 58.3661 73.8317 57.7672C73.5062 57.1683 72.9095 57.0594 71.8787 57.005C70.848 56.9505 69.6545 56.8416 69.0578 55.6438C68.461 54.446 69.0577 53.4115 69.546 52.5404C70.0342 51.6692 70.3597 51.1247 70.0342 50.4714C69.7087 49.818 69.112 49.818 68.0813 49.7091C67.0505 49.6002 65.857 49.5458 65.2603 48.348C64.6635 47.1502 65.2603 46.1157 65.8028 45.2445C66.3453 44.3734 66.5623 43.8289 66.291 43.1756L67.2133 42.6855C67.8643 43.8834 67.2133 44.9179 66.725 45.789C66.2368 46.6601 65.9113 47.259 66.2368 47.858C66.5623 48.4569 67.159 48.5658 68.1898 48.6202C69.2205 48.6747 70.414 48.7836 71.0107 49.9814C71.6075 51.1792 71.0107 52.2137 70.5225 53.0848C70.0342 53.956 69.7087 54.5549 70.0342 55.1538C70.3597 55.7527 70.9565 55.8071 71.9872 55.916C73.018 56.0249 74.1572 56.0794 74.8082 57.2772C75.4592 58.475 74.754 59.5095 74.2657 60.3806C73.7775 61.2518 73.452 61.7963 73.7775 62.4496L72.801 62.9396Z" fill="white"></path>
<path d="M19.7403 24.6037L11.0977 25.8691L12.3554 34.5217L20.998 33.2562L19.7403 24.6037Z" fill="#FF7452"></path>
<path d="M55.0528 82.2033L46.4102 83.4688L47.6679 92.1213L56.3105 90.8558L55.0528 82.2033Z" fill="#FF7452"></path>
<path d="M68.8663 23.5428L63.2266 19.293L59.0052 24.9358L64.6449 29.1856L68.8663 23.5428Z" fill="#FF7452"></path>
</g>
<defs>
<linearGradient id="paint0_linear_639_49978" x1="46.8264" y1="140.162" x2="140.408" y2="46.9129" gradientUnits="userSpaceOnUse">
<stop offset="0.44" stop-color="#0052CC"></stop>
<stop offset="0.78" stop-color="#2684FF"></stop>
</linearGradient>
<linearGradient id="paint1_linear_639_49978" x1="30.5889" y1="96.7805" x2="97.2309" y2="30.374" gradientUnits="userSpaceOnUse">
<stop offset="0.13" stop-color="#B2D4FF"></stop>
<stop offset="0.25" stop-color="#B2D4FF"></stop>
<stop offset="0.67" stop-color="#2684FF"></stop>
</linearGradient>
<linearGradient id="paint2_linear_639_49978" x1="31.9268" y1="95.4133" x2="95.7975" y2="31.7736" gradientUnits="userSpaceOnUse">
<stop stop-color="#4C9AFF"></stop>
<stop offset="0.27" stop-color="#4C9AFF"></stop>
<stop offset="0.67" stop-color="#0065FF"></stop>
</linearGradient>
<linearGradient id="paint3_linear_639_49978" x1="78.2035" y1="79.7818" x2="78.2035" y2="7.80353" gradientUnits="userSpaceOnUse">
<stop stop-color="#091E42"></stop>
<stop offset="1" stop-color="#B3BAC5" stop-opacity="0"></stop>
</linearGradient>
<clipPath id="clip0_639_49978">
<rect width="120" height="120" fill="white"></rect>
</clipPath>
</defs>
</svg>
