<svg width="241" height="189" viewBox="0 0 241 189" fill="none" xmlns="http://www.w3.org/2000/svg">
<g clip-path="url(#clip0_1088_442)">
<rect width="239.8" height="188.1" transform="translate(0.600098 0.199219)" fill="white" fill-opacity="0.01"></rect>
<path opacity="0.7" d="M130.4 44.5983C129.717 44.835 128.994 44.9349 128.273 44.8921C127.551 44.8494 126.845 44.6648 126.195 44.3491C125.545 44.0333 124.964 43.5925 124.484 43.0519C124.004 42.5112 123.636 41.8814 123.4 41.1983L114.9 15.9983C114.665 15.3223 114.566 14.6063 114.61 13.8918C114.654 13.1774 114.84 12.4789 115.156 11.8369C115.473 11.1948 115.913 10.6221 116.453 10.1519C116.993 9.68178 117.621 9.32363 118.3 9.09829L143.4 0.498287C144.081 0.246402 144.808 0.142865 145.532 0.194602C146.257 0.246339 146.962 0.452157 147.6 0.798287C148.249 1.10317 148.831 1.53432 149.312 2.06657C149.793 2.59882 150.163 3.22151 150.4 3.89829L159 29.0983C159.448 30.4646 159.342 31.9518 158.707 33.2415C158.071 34.5312 156.956 35.5208 155.6 35.9983L130.4 44.5983Z" fill="#EBECF0"></path>
<path opacity="0.7" d="M144.51 3.62402L119.329 12.1963C118.127 12.6056 117.484 13.9123 117.893 15.1148L126.459 40.2767C126.868 41.4792 128.175 42.1222 129.378 41.7128L154.559 33.1405C155.761 32.7312 156.404 31.4245 155.995 30.222L147.429 5.06011C147.019 3.85762 145.713 3.21466 144.51 3.62402Z" fill="#C1C7D0"></path>
<g opacity="0.7">
<path opacity="0.7" d="M135.5 31.2976L127.1 26.9976C126.999 26.9547 126.908 26.8914 126.832 26.8118C126.757 26.7321 126.698 26.6378 126.661 26.5346C126.623 26.4314 126.608 26.3216 126.614 26.212C126.621 26.1024 126.65 25.9954 126.7 25.8976L127.8 23.7976C127.852 23.7051 127.922 23.6238 128.006 23.5585C128.089 23.4932 128.185 23.4452 128.287 23.4173C128.39 23.3893 128.497 23.3821 128.602 23.3958C128.707 23.4096 128.808 23.4442 128.9 23.4976L134.6 26.3976L141.9 13.1976C141.952 13.1051 142.022 13.0238 142.106 12.9585C142.189 12.8932 142.285 12.8452 142.387 12.8173C142.49 12.7893 142.597 12.7821 142.702 12.7958C142.807 12.8096 142.908 12.8442 143 12.8976L145.1 13.9976C145.27 14.1181 145.392 14.2935 145.447 14.494C145.501 14.6945 145.485 14.9078 145.4 15.0976L136.5 30.9976C136.458 31.0869 136.398 31.1663 136.324 31.2307C136.249 31.2951 136.162 31.343 136.067 31.3714C135.973 31.3997 135.874 31.4078 135.776 31.395C135.678 31.3823 135.584 31.3491 135.5 31.2976Z" fill="#FAFBFC"></path>
</g>
<path opacity="0.7" d="M145.3 138.198C143.037 138.146 140.885 137.203 139.313 135.574C137.74 133.946 136.873 131.762 136.9 129.498L137.5 88.2984C137.552 86.0524 138.481 83.916 140.089 82.3462C141.696 80.7764 143.853 79.8978 146.1 79.8984L187.4 80.4984C188.516 80.5115 189.619 80.7443 190.645 81.1836C191.672 81.6228 192.601 82.26 193.381 83.0586C194.161 83.8572 194.776 84.8016 195.191 85.8379C195.606 86.8743 195.813 87.9822 195.8 89.0984L195.2 130.398C195.148 132.644 194.219 134.781 192.612 136.351C191.004 137.92 188.847 138.799 186.6 138.798L145.3 138.198Z" fill="#EBECF0"></path>
<path d="M187.344 85.5162L146.149 84.869C144.161 84.8378 142.524 86.4241 142.493 88.4121L141.845 129.607C141.814 131.595 143.4 133.232 145.388 133.263L186.583 133.91C188.571 133.941 190.208 132.355 190.239 130.367L190.887 89.1723C190.918 87.1843 189.332 85.5474 187.344 85.5162Z" fill="#344563"></path>
<path d="M101.5 18.0992H97.7003L97.2003 33.6992C97.15 34.7539 96.7917 35.7706 96.1696 36.6238C95.5475 37.4769 94.689 38.1289 93.7003 38.4992C92.6671 38.088 91.7861 37.3679 91.1775 36.4372C90.569 35.5065 90.2626 34.4106 90.3003 33.2992L90.8003 17.6992H86.9003C83.1051 18.5804 79.6298 20.5 76.8632 23.2433C74.0967 25.9866 72.1478 29.4455 71.2346 33.2331C70.3214 37.0207 70.48 40.9877 71.6924 44.6904C72.9049 48.393 75.1236 51.6854 78.1003 54.1992C78.8886 54.8761 79.5139 55.7223 79.9295 56.6747C80.345 57.627 80.5402 58.6609 80.5003 59.6992L78.3003 128.799H82.2003L84.3003 127.899C90.3958 125.327 96.773 123.481 103.3 122.399L105.3 60.2992C105.327 59.2846 105.584 58.2892 106.052 57.3884C106.519 56.4876 107.186 55.7048 108 55.0992C111.134 52.7779 113.56 49.6297 115.005 46.0074C116.451 42.3851 116.859 38.4318 116.184 34.5905C115.51 30.7493 113.778 27.1718 111.185 24.2591C108.591 21.3463 105.238 19.2134 101.5 18.0992Z" fill="#2684FF"></path>
<path d="M78.1003 54.1992C78.8886 54.8761 79.5139 55.7223 79.9295 56.6747C80.345 57.627 80.5402 58.6609 80.5003 59.6992L78.3003 128.799L80.4003 127.899C86.4958 125.327 92.873 123.481 99.4003 122.399L101.4 60.2992C101.446 59.2777 101.721 58.2797 102.206 57.3794C102.691 56.4791 103.373 55.6997 104.2 55.0992C106.718 53.1948 108.779 50.752 110.232 47.9493C111.686 45.1465 112.495 42.0546 112.6 38.8992C112.79 34.2676 111.426 29.7055 108.727 25.9372C106.027 22.1689 102.146 19.4102 97.7003 18.0992L97.2003 33.6992C97.1226 35.114 96.492 36.4416 95.4444 37.3957C94.3968 38.3497 93.0161 38.8538 91.6003 38.7992C90.8956 38.7864 90.2005 38.6332 89.5557 38.3485C88.9109 38.0638 88.3294 37.6534 87.8452 37.1413C87.361 36.6291 86.9838 36.0255 86.7357 35.3658C86.4876 34.7061 86.3735 34.0035 86.4003 33.2992L86.9003 17.6992C83.1051 18.5804 79.6298 20.5 76.8632 23.2433C74.0967 25.9866 72.1478 29.4455 71.2346 33.2331C70.3214 37.0207 70.48 40.9877 71.6924 44.6904C72.9049 48.393 75.1236 51.6854 78.1003 54.1992Z" fill="#0065FF"></path>
<path d="M89.9003 120.4H89.7003C88.038 120.322 86.4713 119.6 85.3326 118.386C84.1938 117.173 83.5724 115.564 83.6003 113.9L85.3003 59.9998C85.3261 59.1723 85.5148 58.358 85.8555 57.6036C86.1963 56.8491 86.6823 56.1691 87.286 55.6026C87.8897 55.0361 88.5991 54.5941 89.3737 54.3019C90.1483 54.0097 90.9728 53.8731 91.8003 53.8998C93.4539 54.0017 95.0062 54.7313 96.14 55.9394C97.2738 57.1475 97.9034 58.743 97.9003 60.3998L96.1003 114.3C96.097 115.123 95.927 115.938 95.6005 116.694C95.2739 117.45 94.7976 118.133 94.2003 118.7C93.0342 119.791 91.4973 120.399 89.9003 120.4ZM91.6003 57.1998C90.8266 57.2038 90.0805 57.488 89.5003 57.9998C88.9373 58.5653 88.5845 59.3062 88.5003 60.0998L86.8003 114C86.7868 114.402 86.8545 114.803 86.9993 115.179C87.144 115.554 87.3629 115.897 87.6428 116.186C87.9227 116.475 88.258 116.705 88.6286 116.862C88.9993 117.019 89.3977 117.1 89.8003 117.1C90.189 117.148 90.5836 117.1 90.9497 116.961C91.3157 116.821 91.6421 116.594 91.9003 116.3C92.1983 116.034 92.4403 115.711 92.6121 115.351C92.7838 114.99 92.8818 114.599 92.9003 114.2L94.6003 60.2998C94.6277 59.9024 94.5731 59.5037 94.4397 59.1285C94.3063 58.7532 94.097 58.4094 93.825 58.1186C93.5529 57.8278 93.2238 57.5961 92.8583 57.438C92.4927 57.2799 92.0985 57.1988 91.7003 57.1998H91.6003Z" fill="#0052CC"></path>
<path d="M122.6 142.498C141.378 142.498 156.6 127.276 156.6 108.498C156.6 89.7204 141.378 74.498 122.6 74.498C103.822 74.498 88.6001 89.7204 88.6001 108.498C88.6001 127.276 103.822 142.498 122.6 142.498Z" fill="url(#paint0_linear_1088_442)"></path>
<path opacity="0.3" d="M92.0001 93.5977C89.9026 97.9761 88.7445 102.745 88.6001 107.598C88.4718 113.109 89.6778 118.57 92.1155 123.515C94.5532 128.46 98.1502 132.743 102.6 135.998C103.475 134.824 104.051 133.455 104.278 132.009C104.505 130.562 104.375 129.083 103.9 127.698L92.0001 93.5977Z" fill="#FF8B00"></path>
<path opacity="0.3" d="M127.4 74.7988L125.4 83.7988C124.922 86.104 125.366 88.5048 126.637 90.4863C127.908 92.4678 129.905 93.8724 132.2 94.3988L155.4 99.4988C153.629 93.1111 150.039 87.3758 145.068 82.9907C140.097 78.6055 133.959 75.7595 127.4 74.7988Z" fill="#FF8B00"></path>
<path d="M106.4 106.698C108.388 106.698 110 105.086 110 103.098C110 101.11 108.388 99.498 106.4 99.498C104.412 99.498 102.8 101.11 102.8 103.098C102.8 105.086 104.412 106.698 106.4 106.698Z" fill="#FF8B00"></path>
<path d="M139 106.798C140.988 106.798 142.6 105.186 142.6 103.198C142.6 101.209 140.988 99.5977 139 99.5977C137.012 99.5977 135.4 101.209 135.4 103.198C135.4 105.186 137.012 106.798 139 106.798Z" fill="#FF8B00"></path>
<path d="M106.1 115.898C108.147 118.16 110.632 119.981 113.405 121.252C116.177 122.523 119.179 123.217 122.228 123.291C125.278 123.366 128.31 122.82 131.142 121.687C133.973 120.554 136.545 118.856 138.7 116.698L106.1 115.898Z" fill="#FF991F"></path>
<path d="M138.6 87.8982C137.46 87.6503 136.38 87.1781 135.424 86.509C134.468 85.8399 133.655 84.9873 133.031 84.0009C132.408 83.0145 131.986 81.9139 131.792 80.7632C131.598 79.6125 131.635 78.4346 131.9 77.2982L141.3 35.0982C141.825 32.8086 143.234 30.8194 145.22 29.5644C147.205 28.3093 149.607 27.8901 151.9 28.3982L194 37.7982C195.148 38.0373 196.236 38.5061 197.199 39.1763C198.161 39.8465 198.978 40.7043 199.6 41.6982C200.235 42.6794 200.668 43.7772 200.874 44.9275C201.08 46.0779 201.055 47.2577 200.8 48.3982L191.4 90.4982C191.164 91.6476 190.7 92.738 190.035 93.7053C189.371 94.6726 188.52 95.4974 187.532 96.131C186.545 96.7645 185.44 97.1942 184.284 97.3947C183.128 97.5951 181.943 97.5624 180.8 97.2982L138.6 87.8982Z" fill="#EBECF0"></path>
<path d="M192.985 42.6746L150.711 33.3028C148.716 32.8605 146.74 34.1192 146.298 36.1142L136.935 78.3488C136.493 80.3438 137.751 82.3197 139.746 82.7619L182.02 92.1338C184.015 92.5761 185.991 91.3173 186.433 89.3223L195.796 47.0877C196.239 45.0927 194.98 43.1169 192.985 42.6746Z" fill="#0065FF"></path>
<path d="M156.9 73.7987L148.9 60.6987C148.747 60.3897 148.714 60.0352 148.806 59.7031C148.898 59.3709 149.11 59.0845 149.4 58.8987L152.7 56.8987C152.844 56.8062 153.006 56.7433 153.174 56.7133C153.343 56.6834 153.516 56.6871 153.683 56.7243C153.851 56.7615 154.009 56.8314 154.149 56.9299C154.289 57.0285 154.409 57.1538 154.5 57.2987L159.8 66.0987L181.2 53.9987C181.494 53.8516 181.833 53.8214 182.148 53.9142C182.464 54.0069 182.733 54.2158 182.9 54.4987L184.8 57.8987C184.888 58.049 184.945 58.2155 184.968 58.3883C184.991 58.5611 184.978 58.7367 184.932 58.9046C184.885 59.0725 184.805 59.2294 184.696 59.3658C184.588 59.5022 184.453 59.6154 184.3 59.6987L158.7 74.1987C158.556 74.2911 158.395 74.3541 158.226 74.384C158.057 74.4139 157.884 74.4102 157.717 74.373C157.55 74.3358 157.391 74.266 157.251 74.1674C157.111 74.0688 156.992 73.9435 156.9 73.7987Z" fill="#F4F5F7"></path>
<g style="mix-blend-mode:multiply">
<path d="M193.6 80.5977H131.8C132.109 82.5287 133.019 84.3133 134.4 85.6977H192.5L193.6 80.5977Z" fill="#DFE1E5"></path>
</g>
<path d="M60.1001 73.0974C59.847 72.6651 59.5064 72.2905 59.1001 71.9974V70.6974H55.8001C54.9372 70.6923 54.0877 70.9107 53.3342 71.3313C52.5807 71.7518 51.9489 72.3603 51.5001 73.0974L16.4001 129.597V188.297H95.2001V129.597L60.1001 73.0974Z" fill="#00B8D9"></path>
<path d="M97.7001 188.298H18.9001V129.598L54.0001 73.098C54.461 72.3753 55.0966 71.7804 55.8482 71.3683C56.5997 70.9563 57.443 70.7402 58.3001 70.7402C59.1573 70.7402 60.0006 70.9563 60.7521 71.3683C61.5037 71.7804 62.1393 72.3753 62.6001 73.098L97.7001 129.598V188.298Z" fill="#00C7E5"></path>
<path opacity="0.15" d="M65.1001 79.1992L64.4001 75.8992L62.6001 73.0992C62.1725 72.3806 61.5714 71.7807 60.852 71.3545C60.1325 70.9283 59.3176 70.6893 58.4819 70.6594C57.6462 70.6296 56.8164 70.8098 56.0683 71.1836C55.3203 71.5575 54.678 72.1129 54.2001 72.7992L56.3001 82.0992L46.2001 85.5992L21.9001 124.799L30.1001 148.399C30.8948 150.658 32.5476 152.512 34.7003 153.561C36.853 154.609 39.332 154.766 41.6001 153.999L84.1001 139.199C85.2175 138.807 86.2464 138.198 87.1279 137.407C88.0094 136.616 88.7261 135.659 89.2371 134.591C89.748 133.522 90.0431 132.364 90.1054 131.181C90.1677 129.999 89.996 128.815 89.6001 127.699L80.9002 102.599L66.4002 79.1992H65.1001Z" fill="#091E42"></path>
<path d="M196.5 82.3984H55.8C55.137 82.3984 54.5011 82.135 54.0323 81.6662C53.5634 81.1974 53.3 80.5615 53.3 79.8984C53.3 79.2354 53.5634 78.5995 54.0323 78.1307C54.5011 77.6618 55.137 77.3984 55.8 77.3984H196.5C197.163 77.3984 197.799 77.6618 198.268 78.1307C198.737 78.5995 199 79.2354 199 79.8984C199 80.5615 198.737 81.1974 198.268 81.6662C197.799 82.135 197.163 82.3984 196.5 82.3984Z" fill="url(#paint1_linear_1088_442)"></path>
<path d="M60.8002 36.7988L57.0002 62.2988L75.1002 58.2988L60.8002 36.7988Z" fill="#FEEFD3"></path>
<path d="M75.0999 58.3335L57.0454 62.3691L70.1667 121.071L88.2212 117.035L75.0999 58.3335Z" fill="url(#paint2_linear_1088_442)"></path>
<path d="M65.9002 44.4988L60.8002 36.7988L59.5002 45.8988L65.9002 44.4988Z" fill="#344563"></path>
<path d="M66.0397 60.3153L57.0613 62.3223L70.1826 121.024L79.161 119.017L66.0397 60.3153Z" fill="#FCB123"></path>
<path d="M97.4007 127.625L82.6675 85.3165C81.0147 80.5702 75.8272 78.0625 71.081 79.7153L28.7351 94.4617C23.9889 96.1145 21.4812 101.302 23.134 106.048L37.8672 148.356C39.52 153.103 44.7075 155.61 49.4537 153.957L91.7996 139.211C96.5458 137.558 99.0535 132.371 97.4007 127.625Z" fill="#EBECF0"></path>
<path d="M72.8302 84.4767L30.4277 99.2428C28.3936 99.9512 27.3189 102.174 28.0272 104.208L42.7933 146.611C43.5017 148.645 45.7249 149.72 47.759 149.011L90.1615 134.245C92.1956 133.537 93.2703 131.314 92.562 129.28L77.7958 86.8772C77.0875 84.8431 74.8643 83.7683 72.8302 84.4767Z" fill="url(#paint3_linear_1088_442)"></path>
<path d="M66.2745 98.2562L61.1823 108.79C61.0381 109.088 61.163 109.447 61.4613 109.591L65.0356 111.319C65.3339 111.463 65.6927 111.338 65.8369 111.04L70.9291 100.506C71.0734 100.208 70.9484 99.8492 70.6501 99.705L67.0758 97.9771C66.7775 97.8329 66.4187 97.9578 66.2745 98.2562Z" fill="#F4F5F7"></path>
<path d="M54.5 105.999L53.2 102.299C53.1343 102.15 53.0183 102.028 52.8722 101.955C52.7261 101.882 52.5591 101.862 52.4 101.899L39.7 106.299C39.5282 106.366 39.3899 106.498 39.315 106.667C39.2401 106.835 39.2347 107.027 39.3 107.199L43.5 119.299C43.5658 119.449 43.6817 119.571 43.8278 119.644C43.9739 119.717 44.141 119.736 44.3 119.699L48 118.399C48.1496 118.333 48.2714 118.218 48.3445 118.071C48.4175 117.925 48.4372 117.758 48.4 117.599L46.8 113.199L57.9 118.499C57.9807 118.534 58.051 118.589 58.1036 118.659C58.1563 118.729 58.1895 118.812 58.2 118.899L63.3 133.499C63.3222 133.581 63.3614 133.656 63.4149 133.722C63.4684 133.787 63.5351 133.84 63.6106 133.878C63.6861 133.916 63.7687 133.937 63.853 133.941C63.9374 133.945 64.0215 133.93 64.1 133.899L67.8 132.699C67.9575 132.615 68.0825 132.481 68.1549 132.318C68.2274 132.155 68.2433 131.972 68.2 131.799L62.5 115.499C62.4634 115.331 62.3909 115.172 62.2873 115.034C62.1838 114.896 62.0517 114.782 61.9 114.699L49.1 108.499L54.1 106.799C54.2496 106.733 54.3714 106.618 54.4445 106.471C54.5175 106.325 54.5372 106.158 54.5 105.999Z" fill="#F4F5F7"></path>
<path d="M197.5 73.098C197.247 72.6658 196.906 72.2911 196.5 71.998V70.698H193.2C192.335 70.683 191.482 70.8971 190.727 71.3186C189.971 71.7401 189.341 72.3541 188.9 73.098L153.8 129.598V188.298H232.6V129.598L197.5 73.098Z" fill="#00B8D9"></path>
<path d="M235.9 188.298H157.1V129.598L192.2 73.098C192.661 72.3753 193.297 71.7804 194.048 71.3683C194.8 70.9563 195.643 70.7402 196.5 70.7402C197.357 70.7402 198.201 70.9563 198.952 71.3683C199.704 71.7804 200.339 72.3753 200.8 73.098L235.9 129.598V188.298Z" fill="url(#paint4_linear_1088_442)"></path>
<path d="M16.4001 129.598H157.1V188.298H17.2001C16.988 188.298 16.7845 188.213 16.6345 188.063C16.4844 187.913 16.4001 187.71 16.4001 187.498V129.598Z" fill="url(#paint5_linear_1088_442)"></path>
<path d="M197.1 83.498C199.033 83.498 200.6 81.931 200.6 79.998C200.6 78.0651 199.033 76.498 197.1 76.498C195.167 76.498 193.6 78.0651 193.6 79.998C193.6 81.931 195.167 83.498 197.1 83.498Z" fill="#79E2F2"></path>
<path d="M15.0001 33.1992C15.7898 36.7006 17.5502 39.9087 20.0794 42.4556C22.6086 45.0025 25.8043 46.7851 29.3001 47.5992C25.812 48.3947 22.6193 50.1588 20.0895 52.6886C17.5597 55.2184 15.7956 58.4111 15.0001 61.8992C14.197 58.3982 12.4179 55.1966 9.86924 52.6656C7.32053 50.1346 4.10659 48.3779 0.600098 47.5992H0.600098C4.11431 46.8018 7.33124 45.0265 9.87933 42.4785C12.4274 39.9304 14.2027 36.7134 15.0001 33.1992Z" fill="#FFE380"></path>
<path d="M31.2002 69.0996C31.5145 70.5721 32.2483 71.9222 33.3129 72.9869C34.3776 74.0515 35.7277 74.7853 37.2002 75.0996C35.7304 75.455 34.3894 76.2147 33.329 77.2927C32.2687 78.3708 31.5312 79.7241 31.2002 81.1996C30.8692 79.7241 30.1317 78.3708 29.0714 77.2927C28.011 76.2147 26.67 75.455 25.2002 75.0996C26.6727 74.7853 28.0228 74.0515 29.0875 72.9869C30.1521 71.9222 30.8859 70.5721 31.2002 69.0996Z" fill="#FFE380"></path>
<path d="M240.4 28.6988C236.779 27.864 233.468 26.0219 230.849 23.3854C228.23 20.7489 226.411 17.4255 225.6 13.7988C224.79 17.4255 222.97 20.7489 220.351 23.3854C217.732 26.0219 214.421 27.864 210.8 28.6988C214.419 29.5038 217.733 31.3236 220.354 33.9449C222.975 36.5662 224.795 39.8803 225.6 43.4988C226.405 39.8803 228.225 36.5662 230.846 33.9449C233.467 31.3236 236.781 29.5038 240.4 28.6988Z" fill="#FFE380"></path>
<path d="M203.3 11.8992C201.786 11.5585 200.399 10.795 199.302 9.69749C198.204 8.59997 197.441 7.21349 197.1 5.69922C196.759 7.21349 195.996 8.59997 194.898 9.69749C193.801 10.795 192.414 11.5585 190.9 11.8992C192.414 12.2399 193.801 13.0034 194.898 14.1009C195.996 15.1985 196.759 16.5849 197.1 18.0992C197.441 16.5849 198.204 15.1985 199.302 14.1009C200.399 13.0034 201.786 12.2399 203.3 11.8992Z" fill="#FFE380"></path>
</g>
<defs>
<linearGradient id="paint0_linear_1088_442" x1="118.767" y1="144.307" x2="120.807" y2="76.3174" gradientUnits="userSpaceOnUse">
<stop stop-color="#FFAB00"></stop>
<stop offset="0.14" stop-color="#FFAE07"></stop>
<stop offset="0.35" stop-color="#FFB71C"></stop>
<stop offset="0.6" stop-color="#FFC63E"></stop>
<stop offset="0.89" stop-color="#FFDA6C"></stop>
<stop offset="1" stop-color="#FFE380"></stop>
</linearGradient>
<linearGradient id="paint1_linear_1088_442" x1="53.24" y1="79.8884" x2="199.06" y2="79.8884" gradientUnits="userSpaceOnUse">
<stop offset="0.16" stop-color="#00B8D9"></stop>
<stop offset="0.23" stop-color="#20C3E0"></stop>
<stop offset="0.36" stop-color="#5FD8ED"></stop>
<stop offset="0.48" stop-color="#8CE8F7"></stop>
<stop offset="0.57" stop-color="#A9F1FD"></stop>
<stop offset="0.62" stop-color="#B3F5FF"></stop>
</linearGradient>
<linearGradient id="paint2_linear_1088_442" x1="79.1386" y1="119.034" x2="66.0173" y2="60.3329" gradientUnits="userSpaceOnUse">
<stop stop-color="#FFAB00"></stop>
<stop offset="1" stop-color="#FFE380"></stop>
</linearGradient>
<linearGradient id="paint3_linear_1088_442" x1="36.2581" y1="140.717" x2="84.1981" y2="92.7873" gradientUnits="userSpaceOnUse">
<stop stop-color="#00A3BF"></stop>
<stop offset="1" stop-color="#00C7E5"></stop>
</linearGradient>
<linearGradient id="paint4_linear_1088_442" x1="156.74" y1="187.928" x2="236.32" y2="108.348" gradientUnits="userSpaceOnUse">
<stop offset="0.03" stop-color="#00C7E5"></stop>
<stop offset="0.16" stop-color="#25CFE9"></stop>
<stop offset="0.35" stop-color="#52D9EE"></stop>
<stop offset="0.49" stop-color="#6FE0F1"></stop>
<stop offset="0.57" stop-color="#79E2F2"></stop>
<stop offset="1" stop-color="#B3F5FF"></stop>
</linearGradient>
<linearGradient id="paint5_linear_1088_442" x1="37.1401" y1="208.588" x2="136.62" y2="109.108" gradientUnits="userSpaceOnUse">
<stop stop-color="#00B8D9"></stop>
<stop offset="0.15" stop-color="#00BDDD"></stop>
<stop offset="0.63" stop-color="#00C7E5"></stop>
</linearGradient>
<clipPath id="clip0_1088_442">
<rect width="239.8" height="188.1" fill="white" transform="translate(0.600098 0.199219)"></rect>
</clipPath>
</defs>
</svg>
